<svg width="45" height="45" viewBox="0 0 45 45" fill="none" xmlns="http://www.w3.org/2000/svg">
<g clip-path="url(#clip0_1_136)">
<path d="M33.8334 0.979492H10.8334C5.31051 0.979492 0.833359 5.45664 0.833359 10.9795V33.9795C0.833359 39.5023 5.31051 43.9795 10.8334 43.9795H33.8334C39.3562 43.9795 43.8334 39.5023 43.8334 33.9795V10.9795C43.8334 5.45664 39.3562 0.979492 33.8334 0.979492Z" fill="#2E2E2E"/>
<path d="M28.525 22.6057C28.5141 20.8024 29.354 19.4433 31.0502 18.4412C30.1015 17.1191 28.6663 16.392 26.7745 16.2518C24.9832 16.1143 23.0234 17.2672 22.3058 17.2672C21.5474 17.2672 19.8132 16.2994 18.4487 16.2994C15.6327 16.3417 12.64 18.4835 12.64 22.841C12.64 24.1287 12.8819 25.4587 13.3658 26.8284C14.0127 28.6316 16.3449 33.05 18.7776 32.9786C20.0497 32.9495 20.9494 32.1007 22.6048 32.1007C24.2112 32.1007 25.043 32.9786 26.4619 32.9786C28.9164 32.9442 31.0257 28.9278 31.64 27.1192C28.3483 25.6094 28.525 22.6982 28.525 22.6057ZM25.6682 14.5411C27.0463 12.9493 26.9213 11.5003 26.8805 10.9795C25.6627 11.0482 24.2547 11.7859 23.4529 12.6928C22.5695 13.6659 22.0503 14.869 22.1617 16.2254C23.4773 16.3232 24.6788 15.6648 25.6682 14.5411Z" fill="white"/>
</g>
<defs>
<clipPath id="clip0_1_136">
<rect width="44" height="44" fill="white" transform="translate(0.639999 0.189941)"/>
</clipPath>
</defs>
</svg>
